<?xml version="1.0" encoding="UTF-8" standalone="no"?>
<!-- Created with Inkscape (http://www.inkscape.org/) -->

<svg
   version="1.1"
   id="svg1"
   width="2560"
   height="1440"
   viewBox="0 0 2560 1440"
   sodipodi:docname="noosia-logo.svg"
   inkscape:version="1.3.2 (091e20e, 2023-11-25, custom)"
   xmlns:inkscape="http://www.inkscape.org/namespaces/inkscape"
   xmlns:sodipodi="http://sodipodi.sourceforge.net/DTD/sodipodi-0.dtd"
   xmlns="http://www.w3.org/2000/svg"
   xmlns:svg="http://www.w3.org/2000/svg">
  <defs
     id="defs1">
    <clipPath
       clipPathUnits="userSpaceOnUse"
       id="clipPath2">
      <path
         d="M 0,1080 H 1920 V 0 H 0 Z"
         transform="translate(-573.78161,-241.66441)"
         id="path2" />
    </clipPath>
    <clipPath
       clipPathUnits="userSpaceOnUse"
       id="clipPath4">
      <path
         d="M 0,1080 H 1920 V 0 H 0 Z"
         transform="translate(-820.21562,-358.64381)"
         id="path4" />
    </clipPath>
    <clipPath
       clipPathUnits="userSpaceOnUse"
       id="clipPath6">
      <path
         d="M 0,1080 H 1920 V 0 H 0 Z"
         transform="translate(-582.70831,-678.76961)"
         id="path6" />
    </clipPath>
    <clipPath
       clipPathUnits="userSpaceOnUse"
       id="clipPath8">
      <path
         d="M 0,1080 H 1920 V 0 H 0 Z"
         transform="translate(-255.55081,-798.34772)"
         id="path8" />
    </clipPath>
    <clipPath
       clipPathUnits="userSpaceOnUse"
       id="clipPath10">
      <path
         d="M 0,1080 H 1920 V 0 H 0 Z"
         transform="translate(-749.04002,-688.32322)"
         id="path10" />
    </clipPath>
    <clipPath
       clipPathUnits="userSpaceOnUse"
       id="clipPath12">
      <path
         d="M 0,1080 H 1920 V 0 H 0 Z"
         transform="translate(-1024.5991,-703.97742)"
         id="path12" />
    </clipPath>
    <clipPath
       clipPathUnits="userSpaceOnUse"
       id="clipPath14">
      <path
         d="M 0,1080 H 1920 V 0 H 0 Z"
         id="path14" />
    </clipPath>
  </defs>
  <sodipodi:namedview
     id="namedview1"
     pagecolor="#ffffff"
     bordercolor="#000000"
     borderopacity="0.25"
     inkscape:showpageshadow="2"
     inkscape:pageopacity="0.0"
     inkscape:pagecheckerboard="0"
     inkscape:deskcolor="#d1d1d1"
     inkscape:zoom="0.37734375"
     inkscape:cx="1280"
     inkscape:cy="720.82816"
     inkscape:window-width="1440"
     inkscape:window-height="830"
     inkscape:window-x="-6"
     inkscape:window-y="-6"
     inkscape:window-maximized="1"
     inkscape:current-layer="layer-MC0">
    <inkscape:page
       x="0"
       y="0"
       inkscape:label="1"
       id="page1"
       width="2560"
       height="1440"
       margin="104.47107 1012.1733 335.25867 300.73468"
       bleed="0" />
  </sodipodi:namedview>
  <g
     id="layer-MC0"
     inkscape:groupmode="layer"
     inkscape:label="Calque 1">
    <path
       id="path1"
       d="m 0,0 c -7.194,-32.924 -27.801,-53.908 -60.783,-60.683 -32.25,-6.624 -59.397,3.73 -80.483,29.226 -3.047,3.684 -5.727,7.672 -8.555,11.49 5.583,9.504 10.936,18.614 16.584,28.226 5.973,-9.059 11.427,-17.611 18.416,-25.012 14.835,-15.707 32.375,-23.055 53.547,-15.254 20.163,7.429 29.217,23.759 31.434,44.192 1.876,17.301 -0.914,33.793 -12.893,47.234 -18.444,20.695 -49.24,20.52 -69.682,0.12 -10.278,-10.257 -17.119,-22.837 -24.178,-35.292 -11.221,-19.8 -21.256,-40.335 -36.318,-57.738 -21.073,-24.348 -47.778,-33.416 -78.906,-27.198 -32.174,6.427 -51.719,27.36 -60.227,58.512 -9.584,35.093 4.65,74.083 32.972,92.19 34.006,21.741 79.93,14.722 105.773,-16.242 3.723,-4.46 7.108,-9.201 10.941,-14.191 -5.44,-9.605 -10.807,-19.08 -16.501,-29.134 -3.852,5.916 -7.136,11.438 -10.884,16.624 -9.883,13.682 -21.436,25.072 -39.348,27.244 -22.249,2.698 -41.12,-8.06 -49.348,-28.927 -7.106,-18.022 -6.71,-36.241 1.616,-53.793 13.505,-28.473 49.197,-35.258 73.261,-14.227 14.214,12.422 22.738,28.918 32.037,44.846 10.888,18.651 20.072,38.406 34.965,54.467 31.944,34.45 87.903,34.879 118.099,0.398 C 1,54.856 6.203,28.39 0,0 m -10.102,203.405 h -292.342 c -20.538,0 -37.187,-16.649 -37.187,-37.187 v -292.342 c 0,-20.538 16.649,-37.187 37.187,-37.187 h 292.342 c 20.538,0 37.187,16.649 37.187,37.187 v 292.342 c 0,20.538 -16.649,37.187 -37.187,37.187"
       style="fill:#e37b2b;fill-opacity:1;fill-rule:nonzero;stroke:none"
       transform="matrix(1.3333333,0,0,-1.3333333,765.04213,1117.7808)"
       clip-path="url(#clipPath2)" />
    <path
       id="path3"
       d="m 0,0 c -0.628,-2.873 -2.426,-4.704 -5.304,-5.295 -2.814,-0.578 -5.183,0.325 -7.023,2.55 -0.266,0.322 -0.5,0.669 -0.747,1.003 0.488,0.829 0.955,1.624 1.448,2.463 0.521,-0.791 0.997,-1.537 1.607,-2.183 1.294,-1.37 2.825,-2.012 4.672,-1.331 1.76,0.648 2.55,2.073 2.743,3.856 0.164,1.51 -0.08,2.949 -1.125,4.122 -1.609,1.806 -4.297,1.791 -6.08,0.01 -0.897,-0.895 -1.494,-1.992 -2.11,-3.079 -0.979,-1.728 -1.855,-3.52 -3.169,-5.038 -1.839,-2.125 -4.17,-2.916 -6.886,-2.374 -2.807,0.561 -4.513,2.388 -5.255,5.106 -0.837,3.062 0.405,6.465 2.877,8.045 2.967,1.897 6.975,1.284 9.23,-1.418 0.325,-0.389 0.62,-0.803 0.954,-1.238 -0.474,-0.838 -0.943,-1.665 -1.439,-2.542 -0.337,0.516 -0.623,0.998 -0.95,1.45 -0.863,1.194 -1.871,2.188 -3.434,2.378 -1.941,0.235 -3.588,-0.704 -4.306,-2.524 -0.62,-1.573 -0.585,-3.163 0.141,-4.695 1.179,-2.484 4.293,-3.076 6.393,-1.241 1.24,1.084 1.984,2.523 2.795,3.913 0.951,1.628 1.752,3.352 3.052,4.753 2.787,3.006 7.67,3.044 10.305,0.035 C 0.087,4.787 0.541,2.477 0,0 m -0.882,17.749 h -25.51 c -1.792,0 -3.245,-1.452 -3.245,-3.245 v -25.51 c 0,-1.792 1.453,-3.245 3.245,-3.245 h 25.51 c 1.793,0 3.245,1.453 3.245,3.245 v 25.51 c 0,1.793 -1.452,3.245 -3.245,3.245"
       style="fill:#e37b2b;fill-opacity:1;fill-rule:nonzero;stroke:none"
       transform="matrix(1.3333333,0,0,-1.3333333,1093.6208,961.80827)"
       clip-path="url(#clipPath4)" />
    <path
       id="path5"
       d="m 0,0 c 5.584,9.503 10.937,18.614 16.584,28.226 5.974,-9.06 11.428,-17.611 18.417,-25.012 14.834,-15.707 32.375,-23.055 53.547,-15.254 20.162,7.428 29.217,23.759 31.433,44.192 1.877,17.3 -0.914,33.793 -12.893,47.234 C 88.645,100.08 57.849,99.906 37.407,79.506 27.128,69.249 20.287,56.669 13.228,44.214 2.007,24.414 -8.027,3.879 -23.09,-13.524 c -21.073,-24.348 -47.777,-33.416 -78.906,-27.198 -32.173,6.426 -51.719,27.36 -60.227,58.512 -9.584,35.093 4.651,74.082 32.973,92.19 34.006,21.741 79.929,14.722 105.773,-16.242 3.722,-4.46 7.108,-9.201 10.94,-14.191 -5.44,-9.605 -10.807,-19.081 -16.501,-29.134 -3.852,5.916 -7.136,11.437 -10.883,16.624 -9.884,13.681 -21.437,25.072 -39.348,27.244 -22.249,2.698 -41.121,-8.06 -49.348,-28.928 -7.106,-18.022 -6.711,-36.24 1.615,-53.793 13.505,-28.472 49.197,-35.257 73.261,-14.226 14.214,12.422 22.738,28.918 32.037,44.846 10.889,18.651 20.073,38.406 34.965,54.466 31.945,34.45 87.903,34.879 118.099,0.399 19.461,-22.222 24.664,-48.689 18.461,-77.078 -7.193,-32.925 -27.8,-53.909 -60.782,-60.683 C 56.788,-47.341 29.641,-36.987 8.556,-11.491 5.509,-7.806 2.829,-3.818 0,0"
       style="fill:#e37b2b;fill-opacity:1;fill-rule:nonzero;stroke:none"
       transform="matrix(1.3333333,0,0,-1.3333333,776.9444,534.97387)"
       clip-path="url(#clipPath6)" />
    <path
       id="path7"
       d="m 0,0 h 32.672 c 25.363,-39.673 50.922,-79.654 76.481,-119.635 0.348,0.099 0.696,0.198 1.045,0.296 V -0.326 h 26.986 V -159.495 H 105.769 C 80.25,-119.681 54.364,-79.296 27.726,-37.736 V -159.359 H 0 Z"
       style="fill:#3a4150;fill-opacity:1;fill-rule:nonzero;stroke:none"
       transform="matrix(1.3333333,0,0,-1.3333333,340.7344,375.5364)"
       clip-path="url(#clipPath8)" />
    <path
       id="path9"
       d="m 0,0 h 27.684 c 1.265,-5.024 1.783,-10.202 4.58,-14.654 5.943,-9.461 15.036,-13.782 25.582,-15.555 16.841,-2.829 33.458,-3.179 49.09,5.328 7.527,4.095 10.656,10.651 10.544,18.968 -0.115,8.491 -4.73,13.905 -12.106,17.342 -11.315,5.274 -23.629,6.543 -35.69,8.772 C 55.97,22.736 42.065,24.481 29.132,30.127 14.305,36.6 5.183,47.552 4.539,64.066 3.92,79.917 10.745,92.46 23.963,101.173 c 16.605,10.947 35.421,12.723 54.632,12.184 15.852,-0.445 31.177,-3.253 44.47,-12.583 12.668,-8.891 18.817,-21.455 19.814,-37.132 h -27.566 c -0.297,0.761 -0.855,1.629 -0.962,2.549 C 112.919,78.482 105.286,85.703 94.24,89.18 79.104,93.943 63.744,94.057 48.766,88.183 38.09,83.995 33.286,76.799 33.957,67.02 c 0.541,-7.906 6.822,-13.795 17.417,-16.9 17.439,-5.112 35.62,-6.514 53.207,-10.877 11.056,-2.743 21.815,-6.099 30.466,-13.95 18.671,-16.944 15.025,-51.485 -6.878,-65.63 -11.452,-7.396 -24.17,-11.09 -37.635,-11.955 C 67.111,-53.796 43.827,-53.895 22.769,-41.034 7.68,-31.82 1.142,-17.798 0,0"
       style="fill:#3a4150;fill-opacity:1;fill-rule:nonzero;stroke:none"
       transform="matrix(1.3333333,0,0,-1.3333333,998.72,522.23573)"
       clip-path="url(#clipPath10)" />
    <path
       id="path11"
       d="M 0,0 H 52.376 C 43.599,23.606 35.076,46.527 25.933,71.115 16.945,46.466 8.535,23.404 0,0 m 77.057,-65.131 c -5.256,13.723 -10.53,27.49 -15.895,41.495 H -9.195 C -14.323,-37.33 -19.49,-51.128 -24.746,-65.163 h -28.829 c 20.83,53.337 41.521,106.316 62.27,159.445 H 43.712 C 64.484,41.353 85.273,-11.623 106.272,-65.131 Z"
       style="fill:#3a4150;fill-opacity:1;fill-rule:nonzero;stroke:none"
       transform="matrix(1.3333333,0,0,-1.3333333,1366.1321,501.36347)"
       clip-path="url(#clipPath12)" />
    <path
       id="path13"
       d="m 921.951,798.252 h 27.256 v -159.51 h -27.256 z"
       style="fill:#3a4150;fill-opacity:1;fill-rule:nonzero;stroke:none"
       transform="matrix(1.3333333,0,0,-1.3333333,0,1440)"
       clip-path="url(#clipPath14)" />
    <path
       id="path15"
       d="m 0,0 c -7.194,-32.924 -27.801,-53.908 -60.783,-60.683 -32.25,-6.624 -59.397,3.73 -80.483,29.226 -3.047,3.684 -5.727,7.672 -8.555,11.49 5.583,9.504 10.936,18.614 16.584,28.226 5.973,-9.059 11.427,-17.611 18.416,-25.012 14.835,-15.707 32.375,-23.055 53.547,-15.254 20.163,7.429 29.217,23.759 31.434,44.192 1.876,17.301 -0.914,33.793 -12.893,47.234 -18.444,20.695 -49.24,20.52 -69.682,0.12 -10.278,-10.257 -17.119,-22.837 -24.178,-35.292 -11.221,-19.8 -21.256,-40.335 -36.318,-57.738 -21.073,-24.348 -47.778,-33.416 -78.906,-27.198 -32.174,6.427 -51.719,27.36 -60.227,58.512 -9.584,35.093 4.65,74.083 32.972,92.19 34.006,21.741 79.93,14.722 105.773,-16.242 3.723,-4.46 7.108,-9.201 10.941,-14.191 -5.44,-9.605 -10.807,-19.08 -16.501,-29.134 -3.852,5.916 -7.136,11.438 -10.884,16.624 -9.883,13.682 -21.436,25.072 -39.348,27.244 -22.249,2.698 -41.12,-8.06 -49.348,-28.927 -7.106,-18.022 -6.71,-36.241 1.616,-53.793 13.505,-28.473 49.197,-35.258 73.261,-14.227 14.214,12.422 22.738,28.918 32.037,44.846 10.888,18.651 20.072,38.406 34.965,54.467 31.944,34.45 87.903,34.879 118.099,0.398 C 1,54.856 6.203,28.39 0,0 m -10.102,203.405 h -292.342 c -20.538,0 -37.187,-16.649 -37.187,-37.187 v -292.342 c 0,-20.538 16.649,-37.187 37.187,-37.187 h 292.342 c 20.538,0 37.187,16.649 37.187,37.187 v 292.342 c 0,20.538 -16.649,37.187 -37.187,37.187"
       style="fill:#e37b2b;fill-opacity:0;fill-rule:nonzero;stroke:none"
       transform="matrix(1.3333333,0,0,-1.3333333,2127.1953,728.21554)"
       clip-path="url(#clipPath2)"
       inkscape:export-filename="logo-thin.png"
       inkscape:export-xdpi="96"
       inkscape:export-ydpi="96" />
    <path
       id="path16"
       d="m 0,0 c -7.194,-32.924 -27.801,-53.908 -60.783,-60.683 -32.25,-6.624 -59.397,3.73 -80.483,29.226 -3.047,3.684 -5.727,7.672 -8.555,11.49 5.583,9.504 10.936,18.614 16.584,28.226 5.973,-9.059 11.427,-17.611 18.416,-25.012 14.835,-15.707 32.375,-23.055 53.547,-15.254 20.163,7.429 29.217,23.759 31.434,44.192 1.876,17.301 -0.914,33.793 -12.893,47.234 -18.444,20.695 -49.24,20.52 -69.682,0.12 -10.278,-10.257 -17.119,-22.837 -24.178,-35.292 -11.221,-19.8 -21.256,-40.335 -36.318,-57.738 -21.073,-24.348 -47.778,-33.416 -78.906,-27.198 -32.174,6.427 -51.719,27.36 -60.227,58.512 -9.584,35.093 4.65,74.083 32.972,92.19 34.006,21.741 79.93,14.722 105.773,-16.242 3.723,-4.46 7.108,-9.201 10.941,-14.191 -5.44,-9.605 -10.807,-19.08 -16.501,-29.134 -3.852,5.916 -7.136,11.438 -10.884,16.624 -9.883,13.682 -21.436,25.072 -39.348,27.244 -22.249,2.698 -41.12,-8.06 -49.348,-28.927 -7.106,-18.022 -6.71,-36.241 1.616,-53.793 13.505,-28.473 49.197,-35.258 73.261,-14.227 14.214,12.422 22.738,28.918 32.037,44.846 10.888,18.651 20.072,38.406 34.965,54.467 31.944,34.45 87.903,34.879 118.099,0.398 C 1,54.856 6.203,28.39 0,0"
       style="fill:#e37b2b;fill-opacity:1;fill-rule:nonzero;stroke:none"
       transform="matrix(1.3333333,0,0,-1.3333333,2127.1949,728.21549)"
       clip-path="url(#clipPath2)"
       sodipodi:nodetypes="ccscccscsscsscsccccsscccccc" />
  </g>
</svg>
